<svg xmlns="http://www.w3.org/2000/svg" 
    viewBox="0 0 64 64" id="right-direction">
<path fill="#64c37d" d="M27,61a12,12,0,0,1,24,0Z"></path>
<rect width="6" height="34" x="19" y="19" fill="#a78966"></rect>
<rect width="6" height="4" x="19" y="3" fill="#a78966"></rect>
<polygon fill="#ff5023" points="25 7 48 7 48 3 61 13 48 23 48 19 25 19 19 19 13 19 13 7 19 7 25 7"></polygon>
<path fill="#91dc5a" d="M19,61H5a7,7,0,0,1,14,0Z"></path><path fill="#c2fb3b" d="M12,61a16,16,0,0,1,32,0Z"></path>
<path d="M39,48h-.07A16.906,16.906,0,0,0,28,44a16.652,16.652,0,0,0-2,.13V20H47v3a1.012,1.012,0,0,0,.56.9,1,1,0,0,0,1.05-.11l13-10a1,1,0,0,0,0-1.58l-13-10A1,1,0,0,0,47,3V6H26V3a1,1,0,0,0-1-1H19a1,1,0,0,0-1,1V6H13a1,1,0,0,0-1,1V19a1,1,0,0,0,1,1h5V47.27a16.851,16.851,0,0,0-5.02,5.8A7.91,7.91,0,0,0,4.07,60H2v2H62V60H51.95A13.008,13.008,0,0,0,39,48ZM20,4h4V6H20ZM14,18V8H48a1,1,0,0,0,1-1V5.03L59.36,13,49,20.97V19a1,1,0,0,0-1-1Zm10,2V44.49a16.7,16.7,0,0,0-4,1.53V20ZM6.09,60a5.993,5.993,0,0,1,11.82,0Zm13.84,0a8.01,8.01,0,0,0-4.96-6.42A14.985,14.985,0,0,1,42.95,60Zm25.02,0a16.946,16.946,0,0,0-3.82-9.79A11.009,11.009,0,0,1,49.95,60Z"></path>
</svg>