<svg xmlns="http://www.w3.org/2000/svg" width="512" height="512" fill="#A0522D" viewBox="0 0 512 512" id="signpost"><path fill="#A0522D" d="M427.319 408.422C401.889 431.112 339.479 449.902 276.989 419.732L274.629 418.452C269.629 392.292 265.589 365.932 262.559 339.472L271.849 346.012C290.239 355.042 309.779 362.442 330.209 364.022C350.619 365.602 372.119 360.862 387.929 347.822C405.459 333.352 414.259 309.042 410.059 286.712C405.849 264.382 388.819 244.932 367.229 237.822C344.279 230.262 318.749 236.102 294.949 233.512H294.909C288.469 232.802 282.159 231.492 276.059 229.122C263.429 224.212 252.579 215.052 239.449 211.682C233.769 210.222 227.799 209.892 222.309 207.842C216.809 205.792 211.609 201.372 211.049 195.552C210.419 189.122 215.559 183.962 221.789 181.542L219.579 179.282C216.119 178.742 213.859 175.042 213.809 171.532C213.739 168.032 215.349 164.742 217.039 161.672C218.739 158.612 220.579 155.522 221.099 152.062V146.462C219.099 146.792 217.119 147.182 215.179 147.612C196.499 151.822 177.409 159.042 158.759 154.682C154.579 153.702 149.759 151.102 149.879 146.822C149.999 142.182 155.549 140.022 160.069 139.012C179.529 134.702 198.989 130.392 218.449 126.082C239.259 121.472 260.859 116.852 281.699 121.332C302.279 125.742 319.879 138.542 337.709 149.792C337.839 149.872 337.969 149.962 338.099 150.042C363.399 165.972 390.529 179.232 413.869 197.932C444.759 222.692 468.579 258.012 473.339 297.322C478.069 336.632 457.489 381.482 427.319 408.422Z"></path><path fill="#2DA052" d="M360.369 94.8785C353.789 111.148 347.199 127.408 340.619 143.688L337.689 149.788C319.859 138.538 302.269 125.738 281.679 121.328C260.829 116.848 239.229 121.468 218.429 126.078C198.969 130.388 179.509 134.698 160.049 139.008C155.529 140.018 149.979 142.178 149.859 146.818C149.739 151.098 154.559 153.698 158.739 154.678C177.389 159.038 196.489 151.818 215.159 147.608C217.089 147.178 219.079 146.788 221.079 146.458V152.058C220.559 155.518 218.719 158.618 217.019 161.668C215.339 164.738 213.729 168.028 213.789 171.528C213.839 175.028 216.099 178.738 219.559 179.278L221.769 181.538C215.539 183.968 210.409 189.128 211.029 195.548C211.589 201.378 216.789 205.788 222.289 207.838C227.779 209.888 233.739 210.218 239.429 211.678C252.559 215.048 263.409 224.208 276.039 229.118C282.139 231.478 288.449 232.798 294.889 233.508L268.889 235.758C264.589 235.958 260.299 236.148 255.999 236.348C232.489 237.428 208.979 238.518 185.469 239.588C166.819 240.448 148.179 241.308 129.529 242.158C121.679 242.528 113.519 242.828 106.289 239.728C100.519 237.258 95.849 232.818 91.339 228.468C77.209 214.898 63.079 201.338 48.939 187.768C44.029 183.038 38.819 177.738 38.089 170.958C37.079 161.518 45.039 153.758 52.369 147.718C76.989 127.478 102.619 108.428 129.089 90.6785L140.169 85.7785C157.779 84.0585 175.419 82.6685 193.079 81.6285C209.839 80.6385 226.619 79.9585 243.399 79.5885C279.209 78.7885 315.049 79.4085 350.809 81.4285C354.889 81.6685 359.739 82.4385 361.399 86.1585C362.629 88.9185 361.489 92.0985 360.369 94.8785Z"></path><path fill="#5FADD2" d="M243.39 79.6097C226.61 79.9797 209.82 80.6497 193.07 81.6497L194 76.1497C195.95 63.2098 197.88 50.2597 199.81 37.3197 200.15 35.0597 200.74 32.4597 202.8 31.4697 206.64 29.6297 210.18 35.2197 214.42 35.4497 217.14 35.6097 219.4 33.5597 221.5 31.8197 223.59 30.0797 226.41 28.4797 228.89 29.5897 232.02 31.0097 232.01 35.3797 231.79 38.8097 230.93 51.5197 234.01 64.4597 240.49 75.4197L243.39 79.6097zM286.089 471.022C244.109 484.582 198.389 486.482 155.449 476.352 165.449 400.652 175.459 324.932 185.459 249.222V239.592C208.969 238.522 232.479 237.442 255.989 236.352V247.032C256.829 277.922 259.019 308.772 262.549 339.462 265.579 365.922 269.619 392.282 274.619 418.442 277.989 436.072 281.819 453.602 286.089 471.022z"></path><path fill="#231F20" d="M269.42 167.049C269.42 173.659 262.8 177.639 257.06 178.969C252.94 179.919 248.58 179.489 244.43 178.999C239.63 178.429 234.83 177.599 229.98 177.719C222.68 177.899 214.86 180.999 210.83 187.399C208.9 190.469 208.26 194.209 209.14 197.729C210.08 201.499 212.67 204.579 215.73 206.849C223.01 212.259 232.49 211.879 240.84 214.429C248.96 216.909 256.2 221.529 263.58 225.599C271.24 229.829 279.16 233.159 287.8 234.749C296.5 236.349 305.37 236.589 314.2 236.459C331.59 236.209 349.59 234.449 366.41 239.929C380.32 244.459 392.28 254.349 399.89 266.779C407.74 279.589 410.58 294.839 407.72 309.599C404.83 324.549 396.65 338.589 384.38 347.759C371.14 357.659 354.52 361.999 338.15 362.069C319.97 362.139 302.1 356.949 285.5 349.849C281.27 348.039 277.11 346.099 272.98 344.079C270.39 342.809 268.11 346.689 270.71 347.969C287.73 356.319 305.61 363.239 324.51 365.699C341.45 367.899 359.11 366.029 374.69 358.779C389.4 351.939 401.18 339.979 407.6 325.069C413.83 310.619 415.21 294.169 410.43 279.079C405.82 264.549 396.11 251.839 383.48 243.349C376.96 238.959 369.65 235.839 362.01 234.049C353.25 231.999 344.2 231.519 335.23 231.539C317.59 231.579 299.37 233.759 282.15 228.829C273.8 226.439 266.41 222.019 258.88 217.809C255.06 215.669 251.18 213.629 247.13 211.949C242.92 210.209 238.61 209.119 234.13 208.329C226.96 207.069 217.06 205.659 213.9 197.879C211.18 191.169 217.31 185.509 223.12 183.449C231.71 180.409 241.1 183.609 249.88 183.979C257.26 184.289 265.4 182.269 270.35 176.399C272.59 173.749 273.92 170.559 273.92 167.059C273.92 164.149 269.42 164.149 269.42 167.049Z"></path><path fill="#231F20" d="M270.32 156.489C262.7 147.619 251.32 143.839 239.94 143.109C227.13 142.279 214.74 145.299 202.44 148.449C188.47 152.029 172.86 156.339 158.51 152.299C156.31 151.679 153.35 150.499 152.37 148.229C151.41 145.999 153.2 144.209 154.99 143.179C157.49 141.749 160.4 141.239 163.18 140.629C167.16 139.749 171.13 138.869 175.11 137.989C190.57 134.569 206.02 131.119 221.48 127.719C236.63 124.379 252.05 121.199 267.65 121.839C282.12 122.429 295.5 127.199 308.11 134.099C320.44 140.849 331.95 148.999 343.96 156.289C368.64 171.249 394.76 184.419 416.82 203.279C436.14 219.799 452.42 240.489 462.19 264.079C466.94 275.539 470.28 287.779 471.39 300.149C472.47 312.239 471.21 324.449 468.27 336.209C462.23 360.319 449.45 382.999 432.09 400.769C425.25 407.769 417.74 413.529 409.09 418.099C399.52 423.159 389.22 426.779 378.69 429.259C352.49 435.429 324.76 434.179 299.11 426.099C291.93 423.839 284.94 421.049 278.16 417.799C275.56 416.549 273.28 420.429 275.89 421.689C302.46 434.449 332.23 439.989 361.59 436.729C383.45 434.299 406.11 427.489 423.88 414.129C433.19 407.139 441.12 398.229 448.03 388.909C455.79 378.429 462.14 366.949 466.97 354.829C471.67 343.019 474.81 330.569 475.9 317.889C476.99 305.209 475.59 292.499 472.38 280.209C465.72 254.699 451.42 231.579 433.29 212.629C413.11 191.549 387.95 176.799 362.94 162.249C350.2 154.839 337.75 147.059 325.32 139.159C313.28 131.499 300.76 124.149 286.92 120.289C271.76 116.059 255.92 116.869 240.54 119.369C224.49 121.979 208.64 125.969 192.77 129.479C184.71 131.259 176.66 133.049 168.6 134.829C164.9 135.649 161.1 136.299 157.46 137.369C154.85 138.139 152.16 139.259 150.19 141.189C148.2 143.129 147.24 145.919 147.85 148.659C148.49 151.509 150.79 153.669 153.27 155.009C156.25 156.609 159.59 157.269 162.91 157.729C166.65 158.249 170.41 158.399 174.18 158.219C189.54 157.489 204.01 152.039 218.99 149.139C230.38 146.929 242.8 146.349 253.85 150.439C259.02 152.359 263.59 155.489 267.18 159.679C269.02 161.869 272.19 158.669 270.32 156.489Z"></path><path fill="#231F20" d="M218.91 151.47C217.88 157.68 212.95 162.38 211.82 168.57 210.87 173.8 213.11 180.35 218.96 181.46 220.15 181.68 221.39 181.13 221.73 179.89 222.03 178.79 221.36 177.35 220.16 177.12 215.58 176.26 215.63 170.69 216.84 167.26 218.63 162.22 222.35 158.07 223.25 152.67 223.45 151.47 222.94 150.25 221.68 149.9 220.6 149.61 219.11 150.27 218.91 151.47zM242.509 151.72C239.529 156.99 236.449 162.81 237.529 169.06 238.409 174.17 242.219 178.55 247.479 179.14 248.689 179.28 249.729 178.01 249.729 176.89 249.729 175.56 248.689 174.78 247.479 174.64 244.159 174.27 242.119 170.48 241.819 167.49 241.339 162.65 244.109 158.03 246.389 153.99 247.819 151.47 243.939 149.19 242.509 151.72zM257.431 157.731C252.701 162.251 253.741 170.821 259.271 174.221 260.271 174.841 261.791 174.471 262.351 173.411 262.931 172.311 262.621 170.991 261.541 170.331 261.401 170.251 261.281 170.161 261.141 170.071 260.791 169.851 261.341 170.281 261.161 170.091 260.961 169.881 260.731 169.711 260.531 169.511 260.421 169.401 260.321 169.281 260.221 169.161 259.941 168.861 260.381 169.421 260.241 169.191 260.091 168.951 259.921 168.721 259.771 168.471 259.631 168.221 259.511 167.961 259.381 167.701 259.261 167.451 259.531 168.131 259.401 167.731 259.351 167.581 259.291 167.431 259.251 167.281 259.161 167.001 259.091 166.721 259.031 166.441 259.001 166.311 258.981 166.181 258.961 166.051 258.861 165.521 258.991 166.561 258.961 166.021 258.921 165.441 258.921 164.871 258.951 164.291 258.971 163.861 258.881 164.621 258.941 164.341 258.971 164.211 258.981 164.081 259.011 163.951 259.071 163.641 259.151 163.341 259.241 163.041 259.281 162.921 259.321 162.791 259.371 162.671 259.501 162.291 259.321 162.561 259.351 162.701 259.321 162.541 259.661 162.081 259.751 161.941 259.821 161.831 259.891 161.721 259.961 161.611 260.021 161.521 260.081 161.441 260.141 161.361 260.091 161.431 260.031 161.501 259.981 161.571 260.031 161.351 260.471 161.031 260.621 160.881 261.471 160.071 261.501 158.511 260.621 157.701 259.691 156.891 258.331 156.861 257.431 157.731z"></path><path fill="#231F20" d="M127.951 88.7611C106.451 103.171 85.5209 118.441 65.2209 134.501 60.2209 138.451 55.2409 142.441 50.3309 146.511 46.2509 149.891 42.3109 153.571 39.4009 158.041 36.4809 162.521 35.0409 167.811 36.1609 173.111 37.2709 178.391 40.8409 182.801 44.5109 186.581 49.0209 191.211 53.8209 195.591 58.4809 200.071 63.3909 204.781 68.3009 209.501 73.2109 214.211 78.0009 218.811 82.7909 223.411 87.5809 228.011 91.9209 232.181 96.2109 236.561 101.381 239.721 112.201 246.351 125.421 244.611 137.491 244.061 151.011 243.441 164.531 242.821 178.051 242.201 205.011 240.961 231.971 239.721 258.931 238.481 262.251 238.331 265.571 238.181 268.881 238.021 271.761 237.891 271.781 233.391 268.881 233.521 242.501 234.731 216.121 235.941 189.741 237.161 176.631 237.761 163.531 238.361 150.421 238.971 143.781 239.271 137.151 239.581 130.511 239.881 124.701 240.151 118.741 240.541 112.991 239.421 107.351 238.321 102.601 235.571 98.2709 231.861 93.5409 227.791 89.1509 223.291 84.6409 218.971 75.1809 209.891 65.7209 200.801 56.2609 191.721 52.1309 187.761 47.5509 183.941 44.1009 179.341 41.1609 175.441 39.4009 170.821 40.6809 165.941 41.9209 161.211 45.2409 157.311 48.6809 153.981 52.8509 149.931 57.5309 146.381 62.0509 142.731 81.6109 126.991 101.791 112.031 122.511 97.8611 125.061 96.1111 127.621 94.3811 130.191 92.6611 132.621 91.0411 130.371 87.1411 127.951 88.7611zM140.16 88.0481C158.84 86.2181 177.57 84.7681 196.31 83.7081 215.05 82.6481 233.82 81.9681 252.59 81.6881 271.44 81.3981 290.3 81.4981 309.16 81.9881 318.5 82.2281 327.84 82.5681 337.18 83.0081 341.83 83.2281 346.49 83.4281 351.14 83.7281 353.68 83.8981 357.36 84.1581 358.98 86.4381 359.98 87.8381 359.73 89.6281 359.3 91.1881 358.72 93.2781 357.8 95.2681 356.99 97.2781 355.22 101.648 353.45 106.028 351.68 110.398 348.14 119.148 344.6 127.898 341.06 136.638 340.19 138.788 339.32 140.938 338.45 143.088 337.99 144.218 338.95 145.558 340.02 145.858 341.31 146.208 342.33 145.418 342.79 144.288 346.39 135.388 349.99 126.488 353.6 117.588 355.43 113.058 357.26 108.538 359.1 104.008 360 101.778 360.9 99.5581 361.8 97.3281 362.62 95.3081 363.55 93.2781 363.94 91.1181 364.66 87.0981 363.32 83.2481 359.64 81.2281 356.43 79.4681 352.65 79.3181 349.08 79.1181 339.5 78.5881 329.92 78.1581 320.33 77.8281 301.07 77.1681 281.8 76.9181 262.53 77.0781 243.34 77.2381 224.16 77.7881 205 78.7581 185.75 79.7281 166.53 81.0981 147.34 82.8781 144.95 83.0981 142.56 83.3281 140.18 83.5581 138.97 83.6781 137.93 84.5081 137.93 85.8081 137.91 86.9281 138.94 88.1681 140.16 88.0481z"></path><path fill="#231F20" d="M196.169 76.7406C197.579 67.3206 198.989 57.9006 200.399 48.4806 200.739 46.1906 201.089 43.8906 201.429 41.6006 201.729 39.5806 201.899 37.4706 202.479 35.5006 202.809 34.3606 203.459 33.3106 204.519 33.3506 205.409 33.3906 206.659 34.2006 207.589 34.7906 210.469 36.6206 213.529 38.5006 217.069 37.3306 218.949 36.7106 220.509 35.5306 222.029 34.2906 223.399 33.1706 224.959 31.6806 226.809 31.4706 229.779 31.1506 229.679 35.4306 229.619 37.3506 229.489 41.4406 229.319 45.4506 229.749 49.5406 230.739 59.0606 233.709 68.2806 238.569 76.5406 240.039 79.0406 243.929 76.7706 242.459 74.2706 237.989 66.6706 235.119 58.1106 234.239 49.3206 233.809 45.0806 234.119 40.9306 234.149 36.6906 234.179 33.3006 233.439 29.2606 230.049 27.6406 225.569 25.5006 221.729 28.9006 218.399 31.4806 217.139 32.4606 215.639 33.4606 214.019 33.1206 212.599 32.8206 211.339 31.8406 210.139 31.0706 207.229 29.2006 203.709 27.7106 200.639 30.2106 197.409 32.8506 197.449 38.1106 196.879 41.8706 195.199 53.0906 193.519 64.3106 191.839 75.5406 191.659 76.7406 192.139 77.9606 193.409 78.3106 194.459 78.6106 195.989 77.9506 196.169 76.7406zM183.22 249.219C179.23 279.399 175.24 309.579 171.26 339.759 167.28 369.939 163.28 400.119 159.3 430.299 157.06 447.289 154.81 464.269 152.57 481.259 152.41 482.469 153.72 483.509 154.82 483.509 156.17 483.509 156.91 482.469 157.07 481.259 161.06 451.079 165.05 420.899 169.03 390.719 173.01 360.539 177.01 330.359 180.99 300.179 183.23 283.189 185.48 266.209 187.72 249.219 187.88 248.009 186.57 246.969 185.47 246.969 184.12 246.969 183.38 248.009 183.22 249.219zM253.739 247.038C254.569 277.118 256.659 307.158 260.019 337.058 263.389 366.998 267.999 396.798 273.869 426.348 277.149 442.848 280.819 459.268 284.869 475.598 285.569 478.408 289.909 477.218 289.209 474.398 281.999 445.348 275.999 416.008 271.259 386.458 266.519 356.948 263.039 327.238 260.809 297.438 259.549 280.658 258.699 263.858 258.239 247.038 258.159 244.148 253.659 244.138 253.739 247.038z"></path></svg>